<svg width="31" height="20" viewBox="0 0 31 20" fill="none" xmlns="http://www.w3.org/2000/svg">
<path d="M6.16155 6.4C4.35432 6.37203 2.97379 4.91923 2.96156 3.2C2.99141 1.40889 4.45538 0.01256 6.16155 0C7.97038 0.0684 9.34869 1.45293 9.36156 3.2C9.32599 4.99252 7.86947 6.38787 6.16155 6.4ZM8.74879 7.06384C11.0233 7.09039 12.1767 9.08557 12.1872 11.0808V16H9.95739L9.9574 11.6766C9.90311 11.3777 9.70067 11.2764 9.51521 11.3057C9.34159 11.3331 9.18283 11.475 9.17441 11.6766V16H2.97881V11.6766C2.93139 11.3922 2.75044 11.2828 2.5744 11.2938C2.38589 11.3057 2.20303 11.4556 2.19583 11.6766V16H9.435e-05V11.0808C-0.0129723 8.95443 1.33211 7.0796 3.45525 7.06384H8.74879Z" fill="#1E1E1E"/>
<path d="M21.2213 16V14.4773L25.2611 10.517C25.6474 10.1269 25.9694 9.7803 26.227 9.47727C26.4845 9.17424 26.6777 8.88068 26.8065 8.59659C26.9353 8.3125 26.9997 8.00947 26.9997 7.6875C26.9997 7.32008 26.9164 7.00568 26.7497 6.74432C26.583 6.47917 26.3539 6.27462 26.0622 6.13068C25.7705 5.98674 25.4391 5.91477 25.0679 5.91477C24.6853 5.91477 24.3501 5.99432 24.0622 6.15341C23.7743 6.30871 23.5508 6.5303 23.3917 6.81818C23.2364 7.10606 23.1588 7.44886 23.1588 7.84659H21.1531C21.1531 7.10795 21.3217 6.46591 21.6588 5.92045C21.9959 5.375 22.4599 4.95265 23.0508 4.65341C23.6455 4.35417 24.3273 4.20455 25.0963 4.20455C25.8766 4.20455 26.5622 4.35038 27.1531 4.64205C27.744 4.93371 28.2023 5.33333 28.5281 5.84091C28.8576 6.34848 29.0224 6.92803 29.0224 7.57955C29.0224 8.01515 28.9391 8.44318 28.7724 8.86364C28.6058 9.28409 28.3122 9.75 27.8917 10.2614C27.4751 10.7727 26.8898 11.392 26.1361 12.1193L24.1304 14.1591V14.2386H29.1986V16H21.2213Z" fill="#1E1E1E"/>
</svg>
